<svg width="32" height="18" viewBox="0 0 32 18" fill="none" xmlns="http://www.w3.org/2000/svg">
<path d="M2.12539 9L3.76289 10.6375C10.5129 17.3875 21.4941 17.3875 28.2441 10.6375L29.8754 9L28.2379 7.3625C21.4879 0.6125 10.5066 0.6125 3.75664 7.3625L2.12539 9ZM16.0004 16.8875C11.2629 16.8875 6.52539 15.0813 2.91914 11.475L0.862891 9.41875C0.631641 9.1875 0.631641 8.8125 0.862891 8.575L2.91914 6.51875C10.1316 -0.69375 21.8691 -0.69375 29.0816 6.51875L31.1379 8.575C31.3691 8.80625 31.3691 9.18125 31.1379 9.41875L29.0816 11.475C25.4754 15.0813 20.7379 16.8875 16.0004 16.8875Z" fill="black" stroke="black" stroke-width="0.3"/>
<path d="M16 4.46875C13.5 4.46875 11.4687 6.5 11.4687 9C11.4687 11.5 13.5 13.5312 16 13.5312C18.5 13.5312 20.5312 11.5 20.5312 9C20.5312 6.5 18.5 4.46875 16 4.46875ZM16 14.7188C12.8437 14.7188 10.2812 12.15 10.2812 9C10.2812 5.84375 12.85 3.28125 16 3.28125C19.15 3.28125 21.7187 5.85 21.7187 9C21.7187 12.1562 19.1562 14.7188 16 14.7188Z" fill="black" stroke="black" stroke-width="0.3"/>
</svg>
