<svg width="546" height="368" viewBox="0 0 546 368" fill="none" xmlns="http://www.w3.org/2000/svg">
<path d="M171.449 61.8008C169.822 61.1497 167.868 60.0104 165.59 58.3828C163.311 56.7552 160.056 55.2904 155.824 53.9883C151.592 52.3607 146.221 51.0586 139.711 50.082C133.201 49.1055 124.9 48.9427 114.809 49.5938V0.277344C129.132 0.602865 143.617 2.23047 158.266 5.16016C173.24 7.76432 185.284 11.9961 194.398 17.8555C192.445 22.0872 190.167 26.8073 187.562 32.0156C184.958 36.8984 182.517 41.6185 180.238 46.1758C177.96 50.4076 176.007 53.9883 174.379 56.918C172.751 59.8477 171.775 61.4753 171.449 61.8008ZM2.99219 100.863C2.99219 86.5404 5.43359 73.6823 10.3164 62.2891C15.1992 50.8958 21.7096 40.9674 29.8477 32.5039C38.3112 23.7148 48.0768 16.8789 59.1445 11.9961C70.5378 6.78776 82.4193 3.36979 94.7891 1.74219V53.0117C84.3724 56.5924 75.7461 62.9401 68.9102 72.0547C62.0742 80.8438 58.6562 89.7956 58.6562 98.9102C58.6562 111.605 62.0742 121.859 68.9102 129.672C75.7461 137.484 84.3724 144.32 94.7891 150.18V205.844C84.0469 200.635 73.3047 195.102 62.5625 189.242C51.8203 183.057 42.0547 175.896 33.2656 167.758C24.4766 159.62 17.1523 150.18 11.293 139.438C5.75911 128.695 2.99219 115.837 2.99219 100.863ZM10.8047 300.082C15.362 302.686 21.0586 305.29 27.8945 307.895C35.056 310.173 42.3802 312.452 49.8672 314.73C57.3542 316.684 64.8411 318.311 72.3281 319.613C79.8151 320.915 86.8138 321.566 93.3242 321.566H94.7891V367.953H93.8125C86 367.953 77.862 367.465 69.3984 366.488C61.2604 365.837 52.9596 364.535 44.4961 362.582C36.0326 360.629 27.8945 358.025 20.082 354.77C12.5951 351.189 6.08464 346.957 0.550781 342.074L10.8047 300.082ZM114.809 159.945C125.551 164.828 136.456 170.036 147.523 175.57C158.917 181.104 169.171 187.94 178.285 196.078C187.4 203.891 194.887 213.493 200.746 224.887C206.605 236.28 209.535 250.44 209.535 267.367C209.535 279.086 207.257 290.479 202.699 301.547C198.467 312.615 192.283 322.706 184.145 331.82C176.332 340.609 166.566 348.096 154.848 354.281C143.129 360.466 129.783 364.535 114.809 366.488V319.613C141.501 313.103 154.848 295.362 154.848 266.391C154.848 254.997 151.104 245.557 143.617 238.07C136.13 230.583 126.527 223.585 114.809 217.074V159.945ZM545.473 6.13672V366H486.879V203.891H351.137V163.852H486.879V6.13672H545.473ZM271.547 6.13672H331.117V366H271.547V6.13672Z" fill="#A18A68"/>
</svg>
