<svg width="92" height="20" viewBox="0 0 92 20" fill="none" xmlns="http://www.w3.org/2000/svg">
<path d="M8.94922 3.79004C8.86784 3.75749 8.77018 3.70052 8.65625 3.61914C8.54232 3.53776 8.37956 3.46452 8.16797 3.39941C7.95638 3.31803 7.68783 3.25293 7.3623 3.2041C7.03678 3.15527 6.62174 3.14714 6.11719 3.17969V0.713867C6.83333 0.730143 7.55762 0.811523 8.29004 0.958008C9.03874 1.08822 9.64095 1.2998 10.0967 1.59277C9.99902 1.80436 9.88509 2.04036 9.75488 2.30078C9.62467 2.54492 9.5026 2.78092 9.38867 3.00879C9.27474 3.22038 9.17708 3.39941 9.0957 3.5459C9.01432 3.69238 8.96549 3.77376 8.94922 3.79004ZM0.526367 5.74316C0.526367 5.02702 0.648438 4.38411 0.892578 3.81445C1.13672 3.24479 1.46224 2.74837 1.86914 2.3252C2.29232 1.88574 2.7806 1.54395 3.33398 1.2998C3.90365 1.03939 4.49772 0.86849 5.11621 0.787109V3.35059C4.59538 3.52962 4.16406 3.84701 3.82227 4.30273C3.48047 4.74219 3.30957 5.18978 3.30957 5.64551C3.30957 6.28027 3.48047 6.79297 3.82227 7.18359C4.16406 7.57422 4.59538 7.91602 5.11621 8.20898V10.9922C4.5791 10.7318 4.04199 10.4551 3.50488 10.1621C2.96777 9.85286 2.47949 9.49479 2.04004 9.08789C1.60059 8.68099 1.23438 8.20898 0.941406 7.67188C0.664714 7.13477 0.526367 6.49186 0.526367 5.74316ZM0.916992 15.7041C1.14486 15.8343 1.42969 15.9645 1.77148 16.0947C2.12956 16.2087 2.49577 16.3226 2.87012 16.4365C3.24447 16.5342 3.61882 16.6156 3.99316 16.6807C4.36751 16.7458 4.71745 16.7783 5.04297 16.7783H5.11621V19.0977H5.06738C4.67676 19.0977 4.26986 19.0732 3.84668 19.0244C3.43978 18.9919 3.02474 18.9268 2.60156 18.8291C2.17839 18.7314 1.77148 18.6012 1.38086 18.4385C1.00651 18.2594 0.68099 18.0479 0.404297 17.8037L0.916992 15.7041ZM6.11719 8.69727C6.6543 8.94141 7.19954 9.20182 7.75293 9.47852C8.32259 9.75521 8.83529 10.097 9.29102 10.5039C9.74674 10.8945 10.1211 11.3747 10.4141 11.9443C10.707 12.514 10.8535 13.222 10.8535 14.0684C10.8535 14.6543 10.7396 15.224 10.5117 15.7773C10.3001 16.3307 9.99089 16.8353 9.58398 17.291C9.19336 17.7305 8.70508 18.1048 8.11914 18.4141C7.5332 18.7233 6.86589 18.9268 6.11719 19.0244V16.6807C7.45182 16.3551 8.11914 15.4681 8.11914 14.0195C8.11914 13.4499 7.93197 12.9779 7.55762 12.6035C7.18327 12.2292 6.70312 11.8792 6.11719 11.5537V8.69727Z" fill="#A18A68"/>
<path d="M27.6504 1.00684V19H24.7207V10.8945H17.9336V8.89258H24.7207V1.00684H27.6504ZM13.9541 1.00684H16.9326V19H13.9541V1.00684ZM31.8252 9.91797C31.8252 8.4694 31.9961 7.19173 32.3379 6.08496C32.696 4.96191 33.1842 4.0179 33.8027 3.25293C34.4375 2.47168 35.1781 1.8776 36.0244 1.4707C36.887 1.04753 37.8229 0.803385 38.832 0.738281V3.17969C38.2786 3.24479 37.7578 3.41569 37.2695 3.69238C36.7812 3.96908 36.3581 4.37598 36 4.91309C35.6419 5.4502 35.3571 6.13379 35.1455 6.96387C34.9339 7.79395 34.82 8.77865 34.8037 9.91797C34.82 11.0736 34.9339 12.0664 35.1455 12.8965C35.3571 13.7103 35.6419 14.3939 36 14.9473C36.3743 15.5007 36.8057 15.9238 37.2939 16.2168C37.7822 16.4935 38.2949 16.6562 38.832 16.7051V19.1221C37.8392 19.057 36.9115 18.821 36.0488 18.4141C35.1862 17.9909 34.4375 17.3968 33.8027 16.6318C33.1842 15.8506 32.696 14.8984 32.3379 13.7754C31.9961 12.6523 31.8252 11.3665 31.8252 9.91797ZM39.8086 0.738281C40.8014 0.787109 41.721 1.02311 42.5674 1.44629C43.43 1.86947 44.1706 2.47168 44.7891 3.25293C45.4238 4.0179 45.9202 4.96191 46.2783 6.08496C46.6364 7.19173 46.8154 8.4694 46.8154 9.91797C46.8154 11.3665 46.6364 12.6523 46.2783 13.7754C45.9202 14.8984 45.4238 15.8506 44.7891 16.6318C44.1706 17.3968 43.4382 17.9909 42.5918 18.4141C41.7454 18.821 40.8177 19.057 39.8086 19.1221V16.7051C40.362 16.64 40.8828 16.4691 41.3711 16.1924C41.8594 15.8994 42.2826 15.4844 42.6406 14.9473C42.9987 14.3939 43.2835 13.7103 43.4951 12.8965C43.7067 12.0664 43.8206 11.0736 43.8369 9.91797C43.8206 8.76237 43.7067 7.77767 43.4951 6.96387C43.2835 6.13379 42.9906 5.4502 42.6162 4.91309C42.2581 4.3597 41.835 3.94466 41.3467 3.66797C40.8584 3.375 40.3457 3.2041 39.8086 3.15527V0.738281ZM50.917 1.00684H53.8467V19H50.917V1.00684ZM56.0928 1.00684C56.8577 1.00684 57.6146 1.12891 58.3633 1.37305C59.112 1.61719 59.7793 1.9834 60.3652 2.47168C60.9674 2.95996 61.4476 3.55404 61.8057 4.25391C62.18 4.9375 62.3672 5.71061 62.3672 6.57324C62.3672 7.4847 62.2126 8.31478 61.9033 9.06348C61.5941 9.7959 61.1628 10.4144 60.6094 10.9189C60.056 11.4235 59.3887 11.8141 58.6074 12.0908C57.8262 12.3675 56.9635 12.5059 56.0195 12.5059H54.8477V10.3574H56.5322C56.8903 10.3574 57.2402 10.3005 57.582 10.1865C57.9401 10.0563 58.2656 9.85286 58.5586 9.57617C58.8516 9.29948 59.0876 8.91699 59.2666 8.42871C59.4456 7.92415 59.5352 7.30566 59.5352 6.57324C59.5352 6.28027 59.4945 5.94661 59.4131 5.57227C59.3317 5.18164 59.1608 4.81543 58.9004 4.47363C58.6562 4.11556 58.3063 3.82259 57.8506 3.59473C57.3949 3.35059 56.7926 3.22852 56.0439 3.22852H54.8477V1.00684H56.0928ZM65.6875 1.00684H68.6172V19H65.6875V1.00684ZM70.8633 1.00684C71.6283 1.00684 72.3851 1.12891 73.1338 1.37305C73.8825 1.61719 74.5498 1.9834 75.1357 2.47168C75.738 2.95996 76.2181 3.55404 76.5762 4.25391C76.9505 4.9375 77.1377 5.71061 77.1377 6.57324C77.1377 7.4847 76.9831 8.31478 76.6738 9.06348C76.3646 9.7959 75.9333 10.4144 75.3799 10.9189C74.8265 11.4235 74.1592 11.8141 73.3779 12.0908C72.5967 12.3675 71.734 12.5059 70.79 12.5059H69.6182V10.3574H71.3027C71.6608 10.3574 72.0107 10.3005 72.3525 10.1865C72.7106 10.0563 73.0361 9.85286 73.3291 9.57617C73.6221 9.29948 73.8581 8.91699 74.0371 8.42871C74.2161 7.92415 74.3057 7.30566 74.3057 6.57324C74.3057 6.28027 74.265 5.94661 74.1836 5.57227C74.1022 5.18164 73.9313 4.81543 73.6709 4.47363C73.4268 4.11556 73.0768 3.82259 72.6211 3.59473C72.1654 3.35059 71.5632 3.22852 70.8145 3.22852H69.6182V1.00684H70.8633ZM80.5557 1.00684H83.5342V19H80.5557V1.00684ZM91.0537 10.8945H84.5352V8.89258H91.0537V10.8945ZM84.5352 16.7783H91.8105V19H84.5352V16.7783ZM91.8105 1.00684V3.22852H84.5352V1.00684H91.8105Z" fill="black"/>
</svg>
