<?xml version="1.0" standalone="no"?>
<!DOCTYPE svg PUBLIC "-//W3C//DTD SVG 20010904//EN"
 "http://www.w3.org/TR/2001/REC-SVG-20010904/DTD/svg10.dtd">
<svg version="1.0" xmlns="http://www.w3.org/2000/svg"
 width="1092.000000pt" height="1092.000000pt" viewBox="0 0 1092.000000 1092.000000"
 preserveAspectRatio="xMidYMid meet">
<metadata>
Created by potrace 1.14, written by Peter Selinger 2001-2017
</metadata>
<g transform="translate(0.000000,1092.000000) scale(0.100000,-0.100000)"
fill="#000000" stroke="none">
<path d="M2310 9132 c-13 -2 -15 -65 -15 -491 l0 -489 195 1 c193 0 237 -3
355 -24 33 -6 71 -13 85 -15 14 -3 50 -12 80 -20 30 -9 63 -18 72 -19 9 -2 26
-9 38 -15 12 -6 29 -13 38 -15 9 -2 31 -9 47 -16 17 -7 32 -13 35 -14 8 -2 74
-43 86 -53 15 -14 91 -52 102 -52 5 0 38 53 73 117 35 65 69 127 75 138 7 11
39 74 73 140 34 66 83 162 110 212 26 51 46 95 43 98 -3 3 0 5 6 5 7 0 12 6
13 13 0 6 15 43 34 82 l33 70 -59 33 c-74 42 -209 103 -209 96 0 -4 -6 -2 -12
3 -7 6 -31 16 -53 22 -22 7 -47 15 -55 18 -8 4 -18 7 -22 8 -5 2 -11 4 -15 5
-5 1 -12 3 -18 4 -5 1 -30 8 -55 15 -25 8 -54 15 -65 17 -11 1 -56 10 -100 19
-44 9 -91 19 -105 21 -14 3 -50 9 -80 14 -30 6 -64 12 -75 14 -18 3 -88 12
-170 22 -16 2 -48 6 -70 9 -51 7 -150 15 -240 21 -38 2 -90 5 -115 6 -25 2
-52 2 -60 0z"/>
<path d="M1878 9105 c-2 -3 -24 -7 -49 -10 -24 -3 -51 -8 -59 -10 -8 -2 -31
-7 -50 -10 -93 -16 -341 -90 -440 -132 -109 -46 -295 -142 -360 -186 -80 -53
-163 -117 -168 -129 -2 -5 -8 -8 -13 -8 -11 0 -169 -157 -222 -220 -20 -25
-46 -56 -58 -70 -130 -155 -294 -494 -344 -710 -1 -6 -16 -79 -21 -105 -2 -11
-6 -30 -8 -42 -21 -105 -29 -465 -12 -598 10 -89 14 -116 19 -135 2 -8 8 -33
12 -55 11 -48 10 -46 17 -65 3 -8 16 -46 28 -85 123 -387 518 -825 1020 -1130
134 -82 695 -375 717 -375 5 0 8 241 9 553 l0 552 -81 49 c-72 45 -148 97
-183 127 -7 6 -41 34 -75 62 -34 28 -91 81 -126 117 -64 66 -171 217 -171 242
0 7 -6 22 -13 33 -18 26 -46 131 -62 226 -11 74 -12 248 0 299 3 14 8 38 11
54 16 92 149 332 226 409 15 16 33 36 40 45 55 73 277 229 368 257 3 1 19 7
35 14 l31 11 -1 509 c0 280 -3 512 -6 515 -3 3 -8 4 -11 1z"/>
<path d="M5430 5419 l0 -3599 595 0 c560 0 595 1 596 18 1 22 1 7107 0 7148
l-1 31 -595 1 -595 0 0 -3599z"/>
<path d="M9739 8986 c0 -17 -1 -727 -1 -1577 l-1 -1545 -1350 0 c-742 1 -1352
-1 -1357 -4 -4 -3 -7 -183 -6 -400 l1 -395 1355 -1 1355 -1 1 -1619 1 -1619
586 -3 587 -2 -2 3597 -3 3598 -582 1 -583 2 -1 -32z"/>
<path d="M2295 5370 l1 -569 109 -66 c61 -36 112 -70 113 -75 2 -6 8 -10 14
-10 23 0 222 -158 327 -260 120 -116 201 -270 228 -435 10 -66 9 -251 -4 -347
-55 -428 -281 -700 -693 -833 -47 -15 -87 -31 -90 -35 -3 -4 -5 -214 -4 -467
l0 -458 30 1 c30 2 98 12 124 19 8 2 29 7 45 10 186 32 400 107 592 206 94 49
225 128 268 161 6 5 33 25 60 45 114 84 345 314 345 343 0 5 4 10 8 12 20 8
123 163 189 286 59 107 155 352 178 452 6 23 33 161 41 200 8 45 14 462 7 474
-4 5 -7 30 -9 55 -1 25 -5 60 -9 76 -3 17 -8 48 -11 70 -26 173 -143 460 -241
591 -13 17 -23 36 -23 42 0 6 -3 12 -7 14 -5 2 -34 37 -65 79 -65 85 -171 196
-267 279 -35 30 -69 60 -75 66 -12 11 -144 108 -190 139 -116 79 -207 129
-461 254 -237 118 -352 173 -365 176 -3 1 -40 18 -83 38 -43 21 -79 37 -80 37
-1 0 -2 -256 -2 -570z"/>
<path d="M170 2953 c-24 -98 -50 -205 -57 -238 -17 -73 -27 -110 -48 -195 -9
-36 -18 -74 -19 -85 -2 -11 -6 -27 -9 -35 -14 -41 -25 -105 -18 -110 13 -8 72
-54 84 -66 47 -42 329 -204 357 -204 5 0 19 -4 32 -9 13 -5 26 -8 29 -7 3 0
12 -4 20 -10 11 -9 65 -28 139 -49 3 -1 25 -7 50 -15 25 -7 50 -14 57 -16 7
-1 42 -10 79 -19 85 -21 102 -25 138 -30 15 -2 35 -6 45 -9 9 -3 36 -8 61 -11
25 -3 59 -8 75 -11 50 -9 87 -13 155 -19 36 -3 85 -8 110 -11 63 -8 122 -12
295 -19 l150 -7 0 460 c0 253 -2 463 -5 465 -3 3 -54 7 -115 10 -134 7 -235
16 -245 22 -4 2 -34 7 -66 11 -32 3 -62 8 -65 10 -3 2 -19 6 -35 8 -47 9 -77
15 -109 23 -16 4 -34 7 -40 8 -22 2 -93 18 -145 32 -30 8 -69 18 -86 23 -18 4
-36 10 -41 13 -5 3 -20 8 -34 11 -13 2 -44 11 -69 19 -25 9 -105 34 -179 58
-127 40 -179 59 -261 97 -19 9 -37 17 -40 17 -3 1 -33 15 -67 33 -34 18 -66
32 -71 32 -4 0 -28 -80 -52 -177z"/>
</g>
</svg>
